<?xml version="1.0" standalone="no"?><!DOCTYPE svg PUBLIC "-//W3C//DTD SVG 1.1//EN" "http://www.w3.org/Graphics/SVG/1.1/DTD/svg11.dtd"><svg t="1654079325488" class="icon" viewBox="0 0 1024 1024" version="1.1" xmlns="http://www.w3.org/2000/svg" p-id="20365" xmlns:xlink="http://www.w3.org/1999/xlink" width="64" height="64"><defs><style type="text/css"></style></defs><path d="M806.4 171.008c72.192 0 130.56 58.368 130.56 130.56V721.92c0 72.192-58.368 130.56-130.56 130.56h-588.8C145.408 852.992 87.04 794.112 87.04 721.92V302.08c0-72.192 58.368-130.56 130.56-130.56h588.8z m0 65.536h-588.8c-36.352 0-65.536 29.184-65.536 65.536v332.288l159.232-154.624c25.6-24.576 65.536-24.576 91.136 0l192 186.368 73.216-71.168c25.6-24.576 65.536-24.576 91.136 0l112.128 109.056V302.08c0-34.304-26.624-62.464-60.416-65.024l-4.096-0.512z m-170.496 68.608c43.52 0 78.848 35.328 78.848 78.848s-35.328 78.848-78.848 78.848-78.848-35.328-78.848-78.848 35.328-78.848 78.848-78.848z" fill="#ffffff" p-id="20366" data-spm-anchor-id="a313x.7781069.0.i39" class="selected"></path></svg>